<?xml version="1.0" standalone="no"?>
<!DOCTYPE svg PUBLIC "-//W3C//DTD SVG 20010904//EN"
 "http://www.w3.org/TR/2001/REC-SVG-20010904/DTD/svg10.dtd">
<svg version="1.0" xmlns="http://www.w3.org/2000/svg"
 width="700.000000pt" height="700.000000pt" viewBox="0 0 700.000000 700.000000"
 preserveAspectRatio="xMidYMid meet">
<metadata>
Created by potrace 1.11, written by Peter Selinger 2001-2013
</metadata>
<g transform="translate(0.000000,700.000000) scale(0.100000,-0.100000)"
fill="#000000" stroke="none">
<path d="M5608 6194 c-15 -14 -778 -22 -1280 -13 -223 4 -227 3 -233 -70 -4
-58 16 -78 88 -85 55 -5 157 -21 202 -30 38 -8 80 -27 112 -52 58 -44 84 -105
109 -254 12 -69 16 -1284 5 -1313 -14 -35 -32 -54 -64 -66 -14 -6 -161 -10
-326 -11 -165 0 -308 -3 -316 -6 -12 -5 -15 -27 -15 -114 0 -74 4 -111 12
-116 7 -4 141 -9 298 -9 318 -2 357 -8 393 -59 l22 -31 0 -690 c0 -379 -3
-726 -7 -769 -14 -149 -57 -234 -139 -277 -44 -22 -166 -54 -244 -65 -110 -14
-148 -52 -125 -126 11 -39 33 -57 62 -53 104 17 901 23 1243 10 254 -10 254
-10 271 6 7 8 15 35 18 61 6 63 -12 85 -79 92 -296 34 -369 65 -423 179 -23
49 -34 110 -47 268 -5 52 -5 2893 0 2959 20 303 58 379 215 428 48 15 83 21
235 37 35 4 65 13 72 22 14 17 9 109 -7 128 -11 13 -46 26 -52 19z"/>
<path d="M1126 6169 c-21 -30 -21 -112 -1 -129 8 -7 44 -14 79 -15 35 -2 81
-5 102 -9 22 -3 59 -8 84 -11 71 -9 146 -50 179 -99 31 -45 56 -119 67 -201 4
-27 9 -59 12 -70 8 -32 9 -2990 1 -3100 -20 -263 -86 -325 -404 -380 -58 -10
-75 -29 -75 -85 0 -83 0 -83 282 -74 392 12 1108 6 1248 -11 44 -5 63 18 68
84 5 72 0 76 -108 85 -147 13 -254 33 -306 58 -124 58 -171 194 -174 507 -6
583 -2 1229 8 1253 14 33 50 58 94 64 18 3 39 7 46 9 7 3 150 5 318 5 168 1
311 4 319 7 20 7 22 217 3 230 -7 4 -161 9 -343 10 -374 1 -398 5 -427 63 -17
32 -18 82 -15 665 2 346 7 646 11 665 4 19 12 60 18 90 5 30 16 67 24 81 18
36 69 86 106 105 32 16 130 39 213 49 105 12 120 16 138 33 15 14 18 26 13 67
-8 76 -10 77 -226 68 -238 -10 -799 -9 -1101 1 l-237 8 -16 -23z"/>
<path d="M2580 4925 c-36 -59 -15 -173 34 -177 11 0 35 -2 51 -3 216 -14 308
-34 373 -82 53 -40 85 -120 99 -253 4 -41 8 -766 8 -1610 0 -1250 -3 -1550
-14 -1615 -34 -202 -96 -244 -401 -270 -60 -5 -126 -16 -139 -24 -24 -15 -39
-81 -28 -123 18 -74 25 -75 284 -71 280 4 2003 4 2278 0 110 -2 212 1 227 6
39 13 78 114 183 467 21 69 38 130 39 135 1 6 7 26 14 45 6 19 13 46 16 60 3
14 13 63 24 110 23 101 17 122 -39 144 -68 27 -144 18 -155 -18 -19 -61 -138
-293 -192 -373 -92 -137 -159 -204 -244 -246 -113 -54 -172 -61 -528 -61 -262
-1 -327 2 -388 16 -108 25 -175 60 -232 119 -75 79 -106 174 -118 369 -9 144
-9 2759 0 2891 13 187 39 260 113 311 64 45 122 57 330 73 81 7 101 21 108 79
6 46 -8 95 -35 118 -18 16 -37 17 -166 13 -300 -10 -483 -14 -702 -14 -205 0
-305 2 -662 13 l-118 3 -20 -32z"/>
</g>
</svg>
