<svg id="Layer_1" data-name="Layer 1" xmlns="http://www.w3.org/2000/svg" viewBox="0 0 175 175"><defs><style>.cls-1{fill:#8e5c23;}.cls-2{fill:#b58c56;}.cls-3{fill:#bc9051;}.cls-4{fill:#926741;}.cls-5{fill:#b6894e;}.cls-6{fill:#8a5d2b;}.cls-7{fill:#aa8451;}.cls-8{fill:#8f5d24;}.cls-9{fill:#a17a4b;}.cls-10{fill:#996f46;}.cls-11{fill:#ddb161;}.cls-12{fill:#dfb362;}.cls-13{fill:#edcd90;}.cls-14{fill:#785225;}.cls-15{fill:#edce96;}.cls-16{fill:#3e2812;}.cls-17{fill:#eed09a;}.cls-18{fill:#9e753a;}.cls-19{fill:#865825;}.cls-20{fill:#cda15b;}.cls-21{fill:#875f2c;}.cls-22{fill:#c9a56e;}.cls-23{fill:#ebc47d;}.cls-24{fill:#7d5222;}.cls-25{fill:#bb945e;}.cls-26{fill:#815422;}.cls-27{fill:#3a2714;}.cls-28{fill:#472d11;}.cls-29{fill:#dfc18a;}.cls-30{fill:#eed29e;}.cls-31{fill:#a97d46;}.cls-32{fill:#be9762;}.cls-33{fill:#c09455;}.cls-34{fill:#eed29d;}.cls-35{fill:#a67a4b;}.cls-36{fill:#e1b566;}.cls-37{fill:#cc9f5a;}.cls-38{fill:#b28851;}.cls-39{fill:#c8a46f;}.cls-40{fill:#b48850;}.cls-41{fill:#6b461d;}.cls-42{fill:#c39e68;}.cls-43{fill:#c29851;}.cls-44{fill:#d6b580;}.cls-45{fill:#e1c38f;}.cls-46{fill:#d5aa5d;}.cls-47{fill:#d3b27d;}.cls-48{fill:#9d6e36;}.cls-49{fill:#c29454;}.cls-50{fill:#cfa45c;}.cls-51{fill:#cca974;}.cls-52{fill:#e8bd6d;}.cls-53{fill:#96662a;}.cls-54{fill:#c9a46f;}.cls-55{fill:#a57841;}.cls-56{fill:#dec08c;}.cls-57{fill:#d5b47f;}.cls-58{fill:#71481b;}.cls-59{fill:#9c6d35;}.cls-60{fill:#be9761;}.cls-61{fill:#94632b;}.cls-62{fill:#bb8e51;}.cls-63{fill:#dfb161;}.cls-64{fill:#5d3b16;}.cls-65{fill:#67441e;}.cls-66{fill:#513516;}.cls-67{fill:#946c36;}.cls-68{fill:#af8444;}.cls-69{fill:#f0d278;}.cls-70{fill:#eecd74;}.cls-71{fill:#ebc56e;}.cls-72{fill:#e8be68;}.cls-73{fill:#e8bd68;}.cls-74{fill:#f6e687;}.cls-75{fill:#f1e084;}.cls-76{fill:#f0de84;}.cls-77{fill:#8c5f3d;}.cls-78{fill:#9e7144;}.cls-79{fill:#b0834c;}.cls-80{fill:#dcc575;}.cls-81{fill:#6f4a22;}.cls-82{fill:#b29058;}.cls-83{fill:#dcbf6c;}.cls-84{fill:#a87b49;}.cls-85{fill:#ae814b;}.cls-86{fill:#bc8f52;}.cls-87{fill:#cca05e;}.cls-88{fill:#cfb56d;}.cls-89{fill:#d3ba6f;}.cls-90{fill:#caae69;}.cls-91{fill:#ca9a4f;}.cls-92{fill:#996e34;}.cls-93{fill:#9d7144;}.cls-94{fill:#e8d47e;}.cls-95{fill:#d9c174;}.cls-96{fill:#bb945f;}.cls-97{fill:#dbad5c;}.cls-98{fill:#ead67f;}.cls-99{fill:#cd9e51;}.cls-100{fill:#e3c794;}.cls-101{fill:#93663f;}.cls-102{fill:#c1a362;}.cls-103{fill:#ba995d;}.cls-104{fill:#e0ca78;}.cls-105{fill:#dcad5c;}.cls-106{fill:#e2cc79;}.cls-107{fill:#f1d77c;}.cls-108{fill:#f5e083;}.cls-109{fill:#f3dc80;}</style></defs><g id="Logo"><path d="M48.68,124.87c-5.49-.07-11.59.28-17.7.45-1.2,0-1.58-.35-1.78-1.83-.17-1.3.24-2,1.28-2.26,1.4-.29,2.82-.52,4.22-.86,4.48-1.08,6-2.85,6.42-7.39.2-2.15.29-4.3.29-6.46q0-33.24,0-66.48a45.84,45.84,0,0,0-.75-9.28c-.78-3.78-2.71-5.58-6.55-6-1.66-.2-3.34-.38-5-.44-1.06,0-1.42-.53-1.4-1.48a8.43,8.43,0,0,1,.13-1.42,1.35,1.35,0,0,1,1.59-1.21q6.71.27,13.41.43,11.51.24,23-.39c1.3-.08,1.73.36,1.89,2,.13,1.4-.27,1.93-1.53,2.1a53.77,53.77,0,0,0-5.92.86,6.28,6.28,0,0,0-5,5.07,43.45,43.45,0,0,0-.75,9.52c0,8.11,0,16.21,0,24.32,0,2.36.69,3,3,3.36A22.23,22.23,0,0,0,61,67.6c4.16,0,8.32,0,12.48,0,.77,0,1,.2,1,1,0,1.4-.06,2.8,0,4.19,0,.78-.24.92-1,.91q-6,0-12,0a20.85,20.85,0,0,0-4.53.38,2.69,2.69,0,0,0-2.48,2.76,11.56,11.56,0,0,0-.06,1.44c0,10,0,20,.09,30.06a29,29,0,0,0,.84,7,6.53,6.53,0,0,0,5.31,5,51.91,51.91,0,0,0,7.24.91c1,.09,1.42.53,1.43,1.48a4.39,4.39,0,0,1-.23,1.76,1.2,1.2,0,0,1-1.34.88C61.69,125.08,55.5,124.85,48.68,124.87Z"/><path d="M121.05,20.67c6.39,0,12.78-.08,19.16-.48a1.33,1.33,0,0,1,1.57,1.09,4.88,4.88,0,0,1,.1,2,1,1,0,0,1-1.12,1c-1.75.15-3.5.32-5.23.63-4.4.8-6,2.63-6.59,7.07a93.68,93.68,0,0,0-.47,11.72q0,29,0,58.1a73.17,73.17,0,0,0,.68,12.89,6.53,6.53,0,0,0,5.55,5.64,63.15,63.15,0,0,0,6.4.9c.91.1,1.31.49,1.3,1.34a7.6,7.6,0,0,1-.13,1.66,1.28,1.28,0,0,1-1.52,1.12c-8.43-.43-16.85-.59-25.28-.42-3.83.08-7.66.23-11.49.41a1.24,1.24,0,0,1-1.42-.94c-.69-1.89,0-3,1.93-3.32a43.29,43.29,0,0,0,4.93-.94c3.72-1,5.12-2.65,5.63-6.5a64.89,64.89,0,0,0,.4-7.88c0-9,0-18,0-27.07,0-4.08-.66-4.84-4.74-5s-8.32-.1-12.47-.07c-.85,0-1.09-.22-1-1.06a36.84,36.84,0,0,0,0-4.07c0-.85.29-.94,1-.94,4.32,0,8.64,0,13,0h.36c3.07-.19,3.86-.85,3.86-3.91,0-9.86.23-19.72-.21-29.58a21.86,21.86,0,0,0-.65-4.24,6.1,6.1,0,0,0-4.66-4.64,35.58,35.58,0,0,0-6.16-.88A1.31,1.31,0,0,1,102.4,23c-.33-1.9.48-2.81,2.36-2.74C110.19,20.48,115.62,20.7,121.05,20.67Z"/><path class="cls-1" d="M72.32,151.7c4.5-1,5.64-2.34,6.18-8,.23-2.42.28-4.86.28-7.29q0-31.95,0-63.91a51.48,51.48,0,0,0-.62-9.77c-.73-3.72-2.1-5-5.78-5.71a3.08,3.08,0,0,1-.56-.19,1,1,0,0,1-.11-1.17c.47-.47,1-.22,1.52-.15a9.61,9.61,0,0,1,3.47,1.38,8.3,8.3,0,0,1,2.94,4.6,16.92,16.92,0,0,1,.68,4.61c0,3.11.3,6.21.3,9.32,0,19.83.05,39.65-.06,59.48,0,4.12.13,8.31-.88,12.38a7.71,7.71,0,0,1-3.2,4.64,9.79,9.79,0,0,1-3.76,1.22.78.78,0,0,1-.53-.27A1,1,0,0,1,72.32,151.7Z"/><path class="cls-2" d="M93.69,62.13c-.8,6.55-.65,13.13-.65,19.7q0,20.22,0,40.44c0,6.22,0,12.43.41,18.64.19,1,.19,2.11.33,3.16a1.26,1.26,0,0,1-.38,1.19c-.77,0-.79-.7-1-1.19-.41-1.26-.45-2.59-.75-3.87-.16-2.15-.34-4.29-.34-6.44q0-32.07,0-64.12c0-2.15.2-4.3.4-6.43.32-1,.44-2.08.85-3.07.18-.43.25-1,1-1C94.43,60.12,93.68,61.14,93.69,62.13Z"/><path class="cls-3" d="M135.87,133.92c.07-.58.52-.73,1-.85a.9.9,0,0,1,.15.19,1.35,1.35,0,0,1,.05.93c0,.13,0,.14,0,.12.22-.42.61-.36,1-.35a7.66,7.66,0,0,1,1.33.35c.74.4.73,1.06.62,1.75-.35,1.3-.59,2.62-1,3.91s-.61,2.91-1.19,4.28c-.19.44-.27.91-.46,1.35-.09.23-.23.44-.51.42s-.39-.25-.46-.48a3.94,3.94,0,0,1-.11-1.18c0-2.23,0-4.46,0-6.68,0-.5-.23-.57-.54-.7A4.79,4.79,0,0,1,135.87,133.92Z"/><path class="cls-4" d="M121.25,150.55l3.12-.76c.63.15.58.93,1.09,1.18a44.76,44.76,0,0,1-.13,5.05c-.27.51-.93.72-1,1.35l-.12.12-3.39,0c-.5-.78-.22-1.25.6-1.51.48-.15,1.09-.18,1.17-.83a5.17,5.17,0,0,0-.1-2.68c-.29-.66-1.09,0-1.63-.25a.92.92,0,0,1-.33-.19C120.27,151.26,120.46,150.75,121.25,150.55Z"/><path class="cls-5" d="M135.88,137.08c.39-.19.19-.76.79-1v10c.66-.77.45-1.54.91-2,.57.74.32,1.59.31,2.41,0,.47-.25.92-.12,1.4l-1,3.11c-.74-.26-.46-.91-.49-1.41a4.52,4.52,0,0,1,.18-1.36c-.32.51.2,1.51-1,1.56a2,2,0,0,1-.43-1.67c0-2.51,0-5,0-7.53a3,3,0,0,0-.12-1.29A2,2,0,0,1,135.88,137.08Z"/><path class="cls-6" d="M84.31,157.45l-17.75.19c0-.23.17-.33.36-.41a3.91,3.91,0,0,1,1.52-.1,1.77,1.77,0,0,0,2-1,5.71,5.71,0,0,1,2.36-.21c.9,0,1.79,0,2.69,0,2.42,0,4.85,0,7.27,0a2.71,2.71,0,0,1,1.51.22A.93.93,0,0,1,84.31,157.45Z"/><path class="cls-7" d="M118.62,157.45h-1.2a1.63,1.63,0,0,0-1.45-1c-1.44-.31-1.53-.43-1.55-2,0-2,0-2.06,1.63-2.45.22-.09.5-.13.61-.34.47-.9,1.21-.87,2-.64a.84.84,0,0,1,.07.9,4.71,4.71,0,0,0,0,4.45A.94.94,0,0,1,118.62,157.45Z"/><path class="cls-8" d="M74,51.35l10.56.21a1,1,0,0,1,0,1.26c-.84.46-1.76.17-2.64.27s-1.6,0-2.4,0-1.85,0-2.78,0A4.66,4.66,0,0,1,75.71,53c-.57-.25-1.27,0-1.79-.45A.94.94,0,0,1,74,51.35Z"/><path class="cls-9" d="M118.62,157.45a1.54,1.54,0,0,0-.45-1.38c-.5-.44-.41-3.42.07-3.9a1.45,1.45,0,0,0,.38-1.18c-.08-.05-.11-.09-.08-.13a.12.12,0,0,1,.09-.06l1.19,0c.37.32.29.91.72,1.19h0a5.47,5.47,0,0,1-.72,5.5Z"/><path class="cls-10" d="M119.82,157.45c0-.5-.08-1,.46-1.36s.25-.79.26-1.21c0-1,0-2,0-2.93a3.85,3.85,0,0,0,.48,0c1.92-.15,1.92-.15,1.92,1.87a4.7,4.7,0,0,0,0,.84c.19,1-.27,1.54-1.23,1.55s-1,.54-.94,1.25Z"/><path class="cls-11" d="M135.88,137.08,135,139c.07,1-.68,1.69-1,2.56-.37.51-.47,1.3-1.32,1.36-.71-.47-.26-1.15-.31-1.75,1.31-2.35,2.38-4.82,3.52-7.26C135.87,135,135.87,136,135.88,137.08Z"/><path class="cls-12" d="M135.36,155c-.89,2.63-.89,2.64-3.58,2.64l-6.58,0c-.35,0-.72.09-1-.17l0-.09a2.74,2.74,0,0,1,1.68-.29c.78,0,1.57,0,2.34,0,.61,0,1.21,0,1.82,0a3.13,3.13,0,0,0,3.1-1.1,7.35,7.35,0,0,0,.94-2c.35-.54.2-1.42,1.08-1.61C136,153.19,135.22,154.16,135.36,155Z"/><path class="cls-13" d="M105.19,51.08a1.22,1.22,0,0,1,1.4.66,4.44,4.44,0,0,1,.4,3.34,1.6,1.6,0,0,1-1.8,1.23,1,1,0,0,1-.2-1.06,2.66,2.66,0,0,0,0-3.1A1.07,1.07,0,0,1,105.19,51.08Z"/><path class="cls-14" d="M139.72,136.11c0-.59.22-1.25-.47-1.64a.9.9,0,0,1,0-1.26c1.71.47,2.07,1,1.71,2.72-.3,1.43-.69,2.84-1,4.26-.73-.25-.58-.89-.53-1.39A17.32,17.32,0,0,1,139.72,136.11Z"/><path class="cls-15" d="M101.35,150.3a51.12,51.12,0,0,0,5.52.72.85.85,0,0,1-.19,1.35,6.7,6.7,0,0,1-2.56.11,7.57,7.57,0,0,1-2.53-.66A1.54,1.54,0,0,1,101.35,150.3Z"/><path class="cls-16" d="M64.85,56.12a3.66,3.66,0,0,1,0-4.81,1,1,0,0,1,1-.23,1.06,1.06,0,0,1,.22,1,2,2,0,0,1-.19.48,8,8,0,0,0-.33.74,1.69,1.69,0,0,0,.07,1.39,3.42,3.42,0,0,1,.13.34C65.85,55.74,65.94,56.41,64.85,56.12Z"/><path class="cls-17" d="M106.64,157.42h-5.06c-.48-.78-.24-1.38.64-1.43a12.72,12.72,0,0,1,4.35.14A.89.89,0,0,1,106.64,157.42Z"/><path class="cls-18" d="M137.77,147.85c-.44-1.25-.07-2.54-.19-3.81.54-1.32.56-2.79,1.19-4.08a3,3,0,0,1,.28,2.34,3.09,3.09,0,0,0-.08,1.48Z"/><path class="cls-19" d="M74,51.35v1.18a7.77,7.77,0,0,1-4,.22.8.8,0,0,1-.32-.19c-.11-.51-.23-1-.92-1-.22,0-.48-.1-.48-.42Z"/><path class="cls-20" d="M132.35,141.18c.46.47-.11,1.21.43,1.66.32,1-.63,1.38-.95,2.07-.29.34-.45.83-1,.92-.65-.21-.51-.83-.67-1.3Z"/><path class="cls-21" d="M139,143.78c-.44-1.25-.07-2.55-.2-3.82a20.25,20.25,0,0,1,.95-3.85c.15,1.35-.23,2.74.22,4.08C139.82,141.45,139.17,142.55,139,143.78Z"/><path class="cls-22" d="M90,51.52a61.82,61.82,0,0,1,7.7-.17.92.92,0,0,1,.09,1.18c-.51.44-1.21.21-1.77.45a6.43,6.43,0,0,1-1.64.09,1.3,1.3,0,0,1-.71-.23c-.13-.75.63-.47,1-.89a17.64,17.64,0,0,0-2.7-.06C91.34,51.86,90.61,52.08,90,51.52Z"/><path class="cls-23" d="M106.64,157.42l0-1.16A.79.79,0,0,1,107,156a11.94,11.94,0,0,1,3.27,0,.89.89,0,0,1,.34.23,1,1,0,0,1-.09,1.16Z"/><path class="cls-24" d="M71.83,55.64v1.19l-.72-.06c-.39-.19-.84.06-1.22-.18A10.4,10.4,0,0,1,67,56.36c.47-.3,1.14-.48.78-1.29a1.13,1.13,0,0,1,.86-.15C69.71,55.14,70.86,55,71.83,55.64Z"/><path class="cls-25" d="M93.22,145.23c.47-1.42.07-2.88.22-4.32a23.35,23.35,0,0,0,1.47,5,1.5,1.5,0,0,1-.35,1.55c-.36.06-.57-.19-.79-.4C93.46,146.47,93,146,93.22,145.23Z"/><path class="cls-26" d="M72.32,151.7v1.19a4,4,0,0,1-3.26.65,2.26,2.26,0,0,1-.6-1.37Z"/><path class="cls-27" d="M65.1,157.51c-1.6-1.36-1.59-4,0-5A7.73,7.73,0,0,1,65.1,157.51Z"/><path class="cls-28" d="M65.1,157.51c0-1.68,0-3.37,0-5l.93-.05c1-.15.73.51.7,1-.84.65-1.5,1.36-.84,2.51.26.33.78.23,1,.61a.72.72,0,0,1-.16.87l-.21.21C66.07,157.66,65.56,157.86,65.1,157.51Z"/><path class="cls-29" d="M106.88,156.26h-.27c-1.27,0-2.54.05-3.81,0-.92-.05-1.37.22-1.22,1.18H99.42a1,1,0,0,1-.07-1.19,3.18,3.18,0,0,1,1.61-.53c1-.07,2,0,3,0a7.78,7.78,0,0,1,2.76.2A.41.41,0,0,1,106.88,156.26Z"/><path class="cls-30" d="M105.19,51.08v1.18a.83.83,0,0,1-.52.29c-1,0-2.06.25-2.88-.68-.32-.37-.91-.17-1.38-.27a.81.81,0,0,1-.51-.31C101.64,50.87,103.42,51.17,105.19,51.08Z"/><path class="cls-31" d="M90,51.52l2.15.07a.87.87,0,0,1,.12,1.17,1,1,0,0,1-.57.28,13.57,13.57,0,0,1-1.69.05,2,2,0,0,1-1.24-.3,1,1,0,0,1,.06-1.23Z"/><path class="cls-32" d="M93.69,62.13c-.17-1,.27-2-.27-2.92-.16-.78.48-1.14.88-1.63.3-.24.58-.51,1-.33a1.06,1.06,0,0,1,0,1.46A9.77,9.77,0,0,0,93.69,62.13Z"/><path class="cls-33" d="M130.18,144.53c.59.19.27.9.68,1.19,0,1.1-.94,1.6-1.58,2.3a.63.63,0,0,1-.49.15c-.53-.41-.38-1-.32-1.49Z"/><path class="cls-34" d="M105.19,55.14v1.17l-3.13.25a1,1,0,0,1-.16-1.06.7.7,0,0,1,.26-.28c.42-.16.87-.19,1.3-.33C104.06,54.83,104.67,54.68,105.19,55.14Z"/><path class="cls-35" d="M125.34,150.75c-1,.41-.51-.78-1-1l2.12-1.23c.56-.08.74.42,1.06.7a.5.5,0,0,1,0,.34A2.79,2.79,0,0,1,125.34,150.75Z"/><path class="cls-36" d="M110.47,157.42v-1.16a3.37,3.37,0,0,1,2.72-.22c.76.16.79.77.4,1.38Z"/><path class="cls-23" d="M106.62,152.19c.4-.32.19-.78.25-1.17h2.88a1,1,0,0,1,.09,1.18c-.71.55-1.58.15-2.33.4a1.31,1.31,0,0,1-.59,0C106.73,152.53,106.58,152.43,106.62,152.19Z"/><path class="cls-37" d="M113.59,157.42c.11-.83-.15-1.28-1.1-1.18a17,17,0,0,1-2,0h0a.25.25,0,0,1,.08-.36,3.49,3.49,0,0,1,1.66-.22c1.25-.21,2.37.41,3.57.54a.91.91,0,0,1,0,1.22Z"/><path class="cls-38" d="M93.42,157.42H90.55a.89.89,0,0,1,0-1.25,4,4,0,0,1,2.87,0A.9.9,0,0,1,93.42,157.42Z"/><path class="cls-39" d="M95.34,58.71c-.06-.48.21-1-.24-1.42.24-1.09,1.21-1.11,2-1.39a.65.65,0,0,1,.52.26,1,1,0,0,1-.12,1.15Z"/><path class="cls-40" d="M127.5,149.31c-.56.05-.64-.54-1-.75l2-1.88c.49.37,0,1.06.46,1.43A1.46,1.46,0,0,1,127.5,149.31Z"/><path class="cls-41" d="M66.55,153.58c0-.44.23-1-.5-1.17a6.71,6.71,0,0,1,2.4-.24c.75.14.44.74.5,1.18a.6.6,0,0,1-.28.24,4.91,4.91,0,0,1-1.66.28A.62.62,0,0,1,66.55,153.58Z"/><path class="cls-42" d="M94.41,147.39c.4-.42.1-1.07.5-1.5l1.61,2.05c.14.5.15,1-.4,1.25A2.08,2.08,0,0,1,94.41,147.39Z"/><path class="cls-43" d="M135.66,149.79c.48-.54.4-1.33.87-1.95.29,1.06-.18,2.14.27,3.12-.22.65-.45,1.29-.68,1.94-.63-.09-.49-.62-.54-1a13,13,0,0,0-.1-1.53A.69.69,0,0,1,135.66,149.79Z"/><path class="cls-44" d="M99.89,51.29l.48,0a.93.93,0,0,1,0,1.27,2.88,2.88,0,0,1-2.65-.09V51.35Z"/><path class="cls-45" d="M102.07,55.38c0,.39,0,.79,0,1.18l-2.39.26a1,1,0,0,1-.09-1.25A2,2,0,0,1,102.07,55.38Z"/><path class="cls-46" d="M135.66,150.27c.62.79-.15,1.83.46,2.63a9.1,9.1,0,0,1-.76,2.14c-.52-.81.18-1.81-.41-2.61A2,2,0,0,1,135.66,150.27Z"/><path class="cls-47" d="M99.67,55.62v1.2l-2.16.49V56.1c.37-.86,1.13-.7,1.83-.7A.74.74,0,0,1,99.67,55.62Z"/><path class="cls-48" d="M88.87,51.56v1.15a2.33,2.33,0,0,1-2.39.13.94.94,0,0,1,0-1.28Z"/><path class="cls-49" d="M118.63,150.8a1.21,1.21,0,0,1,0,.19c-.64,0-1.45-.28-1.51.88,0,.45-.56.27-.89.32a1.11,1.11,0,0,1-1,0,.91.91,0,0,1,.06-1.19A20,20,0,0,1,118.63,150.8Z"/><path class="cls-50" d="M115.26,151v1.18a5.44,5.44,0,0,1-3,.57,1.8,1.8,0,0,1-1-.22.31.31,0,0,1-.11-.35,1,1,0,0,1,.69-.29,1.57,1.57,0,0,0,1.76-.86Z"/><path class="cls-51" d="M96.05,149.08c.41-.28.17-.82.47-1.14A5.47,5.47,0,0,1,98,149.09a.86.86,0,0,1,0,1.24c-.67.32-1-.2-1.51-.5C96.22,149.63,96,149.45,96.05,149.08Z"/><path class="cls-52" d="M111.9,152.18h-.72a1,1,0,0,1-1.44,0V151h2.16A.82.82,0,0,1,111.9,152.18Z"/><path class="cls-53" d="M84.31,157.45v-1.17a2,2,0,0,1,2.16-.12.9.9,0,0,1,0,1.26Z"/><path class="cls-54" d="M97.5,157.42H95.34a.91.91,0,0,1,0-1.24,2.42,2.42,0,0,1,2.19,0A.9.9,0,0,1,97.5,157.42Z"/><path class="cls-55" d="M90.55,156.26v1.16H88.39a.89.89,0,0,1,0-1.25A2.07,2.07,0,0,1,90.55,156.26Z"/><path class="cls-56" d="M101.35,150.3a2.34,2.34,0,0,1,.24,1.4.61.61,0,0,1-.53.16c-.6-.2-1.3-.23-1.61-.93a1.09,1.09,0,0,1,.21-1.12Z"/><path class="cls-57" d="M99.66,149.81V151c-.33.31-.7.17-1.06.07s-.88-.19-.86-.79c.39-.33.18-.78.24-1.18A4.68,4.68,0,0,1,99.66,149.81Z"/><path class="cls-58" d="M68.25,51.13c.29.28.65.17,1,.19.74,0,.88.36.44,1a2.1,2.1,0,0,1-2.16.09.9.9,0,0,1,0-1.25Z"/><path class="cls-59" d="M88.39,156.26v1.16H86.47v-1.16A1.52,1.52,0,0,1,88.39,156.26Z"/><path class="cls-47" d="M97.5,157.42v-1.16a1.52,1.52,0,0,1,1.92,0v1.16Z"/><path class="cls-60" d="M95.35,156.26v1.16H93.42v-1.16A1.52,1.52,0,0,1,95.35,156.26Z"/><path class="cls-61" d="M86.47,51.56v1.15a1.41,1.41,0,0,1-1.92,0V51.56Z"/><path class="cls-62" d="M115.74,157.44v-1.18a.33.33,0,0,1,.48,0c1-.15,1.36.23,1.2,1.19Z"/><path class="cls-63" d="M111.9,152.18V151h1.68C113.81,152.55,112.7,152.14,111.9,152.18Z"/><path class="cls-64" d="M67.51,51.11v1.13a1.18,1.18,0,0,1-1.69,0l0-1.15Z"/><path class="cls-65" d="M67.75,55.18c.22.27.89.22.68.78s-1,.21-1.43.4l-.11,0-.09-.06a1,1,0,0,1-.12-1.14.66.66,0,0,1,.54-.26A.59.59,0,0,1,67.75,55.18Z"/><path class="cls-66" d="M66.79,55.16v1.17a3.51,3.51,0,0,1-2-.21c1.09,0,.71-.69.53-1.25A1.05,1.05,0,0,1,66.79,55.16Z"/><path class="cls-67" d="M139.26,133.21c0,.42,0,.84,0,1.26a2,2,0,0,1-1.19-.26.85.85,0,0,1,0-1.18A1.53,1.53,0,0,1,139.26,133.21Z"/><path class="cls-68" d="M138.06,133v1.18c-1,.27-1.39-.14-1.2-1.14A2.44,2.44,0,0,1,138.06,133Z"/><path class="cls-10" d="M120.54,152c-1,.05-.66-.69-.72-1.19l1.43-.21A2,2,0,0,0,120.54,152Z"/><path class="cls-1" d="M69.89,56.59c.42,0,.85-.15,1.22.18A2.23,2.23,0,0,1,69.89,56.59Z"/><path class="cls-69" d="M79.52,52.79H81.9a1.18,1.18,0,0,1,.27.4A5.92,5.92,0,0,1,82.3,55q0,49.5,0,99a3.58,3.58,0,0,1-.27,2,4.49,4.49,0,0,1-2.27.13c-.47-.49-.36-1.11-.37-1.69-.06-2.25.1-4.51-.11-6.76.92-4.27.85-8.63.86-13q.09-29.56,0-59.12c0-3.74,0-7.49-.41-11.22-.1-1.06-.32-2.12-.49-3.18-.21-2.26-.1-4.52-.12-6.78A2,2,0,0,1,79.52,52.79Z"/><path class="cls-70" d="M79.28,147.63a1.78,1.78,0,0,1,.48,1.52c0,2.29,0,4.57,0,6.86a10.26,10.26,0,0,1-3.13.06c-.67-1.43-.34-2.91-.25-4.39A7.75,7.75,0,0,0,79.28,147.63Z"/><path class="cls-70" d="M79.52,52.79c0,2.33,0,4.66,0,7a2.41,2.41,0,0,1-.26,1.37,8.77,8.77,0,0,0-2.65-4,5.7,5.7,0,0,1,0-4.35Z"/><path class="cls-71" d="M76.38,151.68c.54,1.42.12,2.89.26,4.33-.36.27-.8,0-1.18.18l-2.66,0a3.41,3.41,0,0,1,0-3.28A16.2,16.2,0,0,0,76.38,151.68Z"/><path class="cls-72" d="M71.83,55.64l-3.12-.49a2.7,2.7,0,0,1-.09-2.6,1.13,1.13,0,0,1,1.07-.08l4.31.06c.56.13,1.17-.14,1.7.21a1.36,1.36,0,0,1-1.2.33c-.89,0-1.17.4-1.14,1.22a3,3,0,0,1-.1,1.51Z"/><path class="cls-71" d="M73.26,55.8a5.34,5.34,0,0,1-.2-2.54c0-.5.39-.5.76-.51H75.7l.94,0,0,4.35A13.41,13.41,0,0,0,73.26,55.8Z"/><path class="cls-73" d="M72.8,152.94v3.28l-2.41.08a1.25,1.25,0,0,1-.59.25,1.35,1.35,0,0,1-1.21-.34,3.12,3.12,0,0,1,.13-2.79l.23-.07a13.61,13.61,0,0,0,3.36-.46Z"/><path class="cls-74" d="M90.08,52.77h1.67a2.5,2.5,0,0,1,.37,1.82c0,2.82-.08,5.64.09,8.45a24.55,24.55,0,0,0-.39,5.33c-.07,21.47,0,42.94-.08,64.41,0,2.55.26,5.09.26,7.64.23,4.7.11,9.4.13,14.1a2.24,2.24,0,0,1-.31,1.49,8.72,8.72,0,0,1-3.26,0,3.68,3.68,0,0,1-.32-2.21V55.34a5.94,5.94,0,0,1,.18-2.14C88.84,52.55,89.57,53.08,90.08,52.77Z"/><path class="cls-75" d="M91.75,156c0-4.53,0-9.06,0-13.59a6.37,6.37,0,0,1,.26-2c.25,1.21.47,2.42.75,3.63a7.44,7.44,0,0,0,.47,1.18l.7,1.66a54.91,54.91,0,0,1,.11,6.54,4.44,4.44,0,0,1-.28,2.57A3.11,3.11,0,0,1,91.75,156Z"/><path class="cls-76" d="M92.21,63a4.34,4.34,0,0,1-.46-2.16V52.77l.47-.06a1.09,1.09,0,0,1,1.45,0l.71,0a7.06,7.06,0,0,1,0,5l-1,1.45A12.4,12.4,0,0,0,92.21,63Z"/><path class="cls-77" d="M125.34,150.75l2.16-1.2a.93.93,0,0,1,.5.77,19.79,19.79,0,0,1-.14,5.9c-.57.53-1.27.38-2,.36a1.07,1.07,0,0,1-.81-.32C125.23,154.42,124.82,152.56,125.34,150.75Z"/><path class="cls-78" d="M125.1,156.26h.72a.82.82,0,0,1,0,1.15l-1.67,0C124.07,156.69,124.16,156.11,125.1,156.26Z"/><path class="cls-79" d="M135.66,150.27c-.24.72-.47,1.44-.71,2.16l-.73,1.68a2.2,2.2,0,0,1-.37-1.7c0-3.39,0-6.78,0-10.17a2.58,2.58,0,0,0-.08-.83c.41-.8.81-1.6,1.21-2.4.66.14.45.67.45,1.06q0,4.17,0,8.34a2.37,2.37,0,0,0,.24,1.38Z"/><path class="cls-80" d="M91.75,156h1.91c.81-.56,1.72-.31,2.6-.34,2.09,0,2.06,0,2.1-2.17,0-.92-.26-1.9.35-2.75a1.7,1.7,0,0,0,1,.24l1.44.71c.13,1.45.4,2.91-.24,4.32a4.4,4.4,0,0,1-1.44.24h-13l-2.16,0-8.85-.09c.36-.3.79-.12,1.18-.18h5.28c.65-.5,1.41-.32,2.14-.34s1.61,0,2.42,0a3.51,3.51,0,0,1,2.16.32Z"/><path class="cls-81" d="M69.91,156.31h.48c.15.87-.18,1.24-1.1,1.16s-1.68,0-2.52,0c0-.31,0-.62,0-.92a1.63,1.63,0,0,1,1.64-.25A3.09,3.09,0,0,0,69.91,156.31Z"/><path class="cls-82" d="M116.22,156.26h-.48l-3.59-.24a3.92,3.92,0,0,1,0-3.59,27.15,27.15,0,0,0,3.11-.25h1c-.33.52-1.28-.12-1.37.61a10.39,10.39,0,0,0,0,2.84C114.94,156.37,115.89,155.74,116.22,156.26Z"/><path class="cls-83" d="M90.08,52.77c-.44.38-1,.14-1.45.22-.65.51-1.41.33-2.14.34s-1.62,0-2.42,0-1.5.17-2.16-.34a1.34,1.34,0,0,0,0-.2l2.65-.08h4.31Z"/><path class="cls-84" d="M133.75,141.41c.61.3.46.87.46,1.36q0,5.67,0,11.34c-.24.71-.49,1.42-.73,2.14a2.9,2.9,0,0,1-1.65.11.93.93,0,0,1-.26-.36,42.51,42.51,0,0,1-.12-6,30.69,30.69,0,0,1,.14-5.25c.34-.68,1-1.15,1.18-1.94C133.11,142.37,133.43,141.89,133.75,141.41Z"/><path class="cls-85" d="M125.81,157.42c0-.39,0-.77,0-1.15l1.92,0a.42.42,0,0,1,.56,0,.88.88,0,0,1-.09,1.15Z"/><path class="cls-86" d="M128.21,157.42v-1.15c.34-.38.8-.33,1.24-.35.8,0,1.63-.2,2.36.32v0c-.25.83-1.4.38-1.68,1.18Z"/><path class="cls-87" d="M130.13,157.45c-.07-.69.18-1,.93-1a.73.73,0,0,0,.75-.22l1.68,0C132.53,157.09,131.53,157.81,130.13,157.45Z"/><path class="cls-88" d="M105.19,55.14h-1.92a1.58,1.58,0,0,1-1.28,0,3,3,0,0,1,0-2.6c.89-.39,1.86.1,2.75-.26h.47C106.11,53.35,106.11,54.21,105.19,55.14Z"/><path class="cls-89" d="M100.87,156c.12-1.44-.27-2.9.24-4.32h.48l2.4.48a4.5,4.5,0,0,1,0,3.83Z"/><path class="cls-90" d="M104,156v-3.83h2.63l.24.23a4.73,4.73,0,0,1,.16,3.45l-.16.16Z"/><path class="cls-91" d="M66.79,55.16l-1.41-.29a.65.65,0,0,0-.06-.21,2.89,2.89,0,0,1,0-1.43l.29-.71a1.72,1.72,0,0,1,1.18-.08c.54.82.31,1.78.48,2.66Z"/><path class="cls-92" d="M66.81,52.53h-1.2l.21-.29h1.69l2.17,0a1.27,1.27,0,0,0,0,.2l-1,.08A1.62,1.62,0,0,1,66.81,52.53Z"/><path class="cls-66" d="M65.32,53.23v1.43A1.19,1.19,0,0,1,65.32,53.23Z"/><path class="cls-93" d="M131.82,156.24h-2.41a1.51,1.51,0,0,1-.35-1.11c0-2.43-.15-4.85.12-7.27a17.49,17.49,0,0,0,1.68-2.15l.74-.94c.37.36.21.82.21,1.24Q131.82,151.14,131.82,156.24Z"/><path class="cls-94" d="M94.38,57.76v-5l1.69,0a1,1,0,0,1,1.06,0A4,4,0,0,1,97,56.1c-.63.42-1.47.51-1.93,1.19Z"/><path class="cls-95" d="M97,52.75h-1c.5-.44,1.12-.14,1.68-.23h2.64a1.26,1.26,0,0,1,1.68,0v2.63c.08.06.11.11.08.16s-.06.08-.08.08h0a6.71,6.71,0,0,0-2.4.24h-.24c0-.07-.11-.14-.11-.21A2.25,2.25,0,0,0,97,52.75Z"/><path class="cls-96" d="M93.67,52.74l-1.45,0,0-1.12,2.47,0c.33,0,.65,0,.65.47s-.33.46-.65.48S93.94,52.41,93.67,52.74Z"/><path class="cls-36" d="M110.46,156a1.93,1.93,0,0,0,0,.24h-3.59c0-.08,0-.15,0-.23h0c.8-.57,1.7-.31,2.57-.34A1.31,1.31,0,0,1,110.46,156Z"/><path class="cls-97" d="M66.81,52.53l1.92,0c0,.87,0,1.73,0,2.6l-1,0-.48-.08C66.4,54.38,66.94,53.39,66.81,52.53Z"/><path class="cls-98" d="M96.3,156H93.66c0-2.38,0-4.76,0-7.13a6.37,6.37,0,0,1,.26-2l.49.5a6.28,6.28,0,0,0,1.64,1.69l.49.49C96.69,151.72,97,153.89,96.3,156Z"/><path class="cls-99" d="M66.55,153.58l.49.06a2.62,2.62,0,0,1,.08,2.6,1.75,1.75,0,0,1-1.5,0,2.57,2.57,0,0,1-.3-1.25C65.24,154.08,65.53,153.52,66.55,153.58Z"/><path class="cls-6" d="M65.62,156.23h1.43a1.35,1.35,0,0,1,1.67,0l1.19.08c-1,.43-2.08.06-3.12.2C66.39,156.45,65.92,156.7,65.62,156.23Z"/><path class="cls-100" d="M102.07,52.51h-1.68c0-.4,0-.79,0-1.18.78.07,1.61-.34,2.2.77.27.51,1.4.1,2.14.17C103.87,52.76,103,52.39,102.07,52.51Z"/><path class="cls-101" d="M129.18,147.87c.36.31.23.74.23,1.12q0,3.63,0,7.26l-1.19,0-.48,0c-.11-2.23.26-4.48-.24-6.69v-.24l1.43-1.2Z"/><path class="cls-45" d="M102.07,55.38v-.24h1.2C102.93,55.54,102.47,55.33,102.07,55.38Z"/><path class="cls-102" d="M109.51,156h-2.64c0-1.2,0-2.4,0-3.6h.48a4.55,4.55,0,0,1,2.23,0A4.33,4.33,0,0,1,109.51,156Z"/><path class="cls-90" d="M109.51,152.43h-2.17c.76-.47,1.61-.13,2.4-.24h1.44v.23A1.25,1.25,0,0,1,109.51,152.43Z"/><path class="cls-103" d="M109.51,152.43h2.64V156h-2.64Z"/><path class="cls-104" d="M97,52.75c3,0,2.25-.53,2.4,2.87a3.68,3.68,0,0,0-1.92.48H97Z"/><path class="cls-105" d="M68.72,156.23H67.05c0-.86,0-1.72,0-2.58a6,6,0,0,1,1.68-.22Z"/><path class="cls-106" d="M96.3,156c.12-2.14-.24-4.31.24-6.44.46.14.65.73,1.21.7a1.32,1.32,0,0,0,1,.48c0,1.34-.06,2.68,0,4,0,1-.24,1.41-1.24,1.27A9.42,9.42,0,0,0,96.3,156Z"/><path class="cls-107" d="M81.91,53h2.16a2.45,2.45,0,0,1,.39,1.82q0,4.92,0,9.82,0,44.48,0,88.94a3.55,3.55,0,0,1-.38,2.43H81.92Q81.92,104.5,81.91,53Z"/><path class="cls-108" d="M86.47,53h2.16q0,51.49,0,103H86.48a1.65,1.65,0,0,1-.39-1.22c0-.4,0-.8,0-1.2q0-49.08,0-98.15A3.55,3.55,0,0,1,86.47,53Z"/><path class="cls-109" d="M86.47,53q0,51.51,0,103l-2.4,0q0-51.51,0-103Z"/></g></svg>